<?xml version="1.0" encoding="iso-8859-1"?><svg viewBox="0 0 512 512" xmlns="http://www.w3.org/2000/svg" xmlns:xlink="http://www.w3.org/1999/xlink"><style>:root>svg{display:none}:root>svg:target{display:block}</style><svg viewBox="0 0 512 512" id="svg--close" xmlns="http://www.w3.org/2000/svg"><path d="M256 0C114.508 0 0 114.497 0 256c0 141.493 114.497 256 256 256 141.492 0 256-114.497 256-256C512 114.507 397.503 0 256 0zm0 472c-119.384 0-216-96.607-216-216 0-119.385 96.607-216 216-216 119.384 0 216 96.607 216 216 0 119.385-96.607 216-216 216z"/><path d="M343.586 315.302L284.284 256l59.302-59.302c7.81-7.81 7.811-20.473.001-28.284-7.812-7.811-20.475-7.81-28.284 0L256 227.716l-59.303-59.302c-7.809-7.811-20.474-7.811-28.284 0-7.81 7.811-7.81 20.474.001 28.284L227.716 256l-59.302 59.302c-7.811 7.811-7.812 20.474-.001 28.284 7.813 7.812 20.476 7.809 28.284 0L256 284.284l59.303 59.302c7.808 7.81 20.473 7.811 28.284 0s7.81-20.474-.001-28.284z"/></svg><svg viewBox="0 0 492.004 492.004" id="svg--next-arrow" xmlns="http://www.w3.org/2000/svg"><path d="M382.678 226.804L163.73 7.86C158.666 2.792 151.906 0 144.698 0s-13.968 2.792-19.032 7.86l-16.124 16.12c-10.492 10.504-10.492 27.576 0 38.064L293.398 245.9l-184.06 184.06c-5.064 5.068-7.86 11.824-7.86 19.028 0 7.212 2.796 13.968 7.86 19.04l16.124 16.116c5.068 5.068 11.824 7.86 19.032 7.86s13.968-2.792 19.032-7.86L382.678 265c5.076-5.084 7.864-11.872 7.848-19.088.016-7.244-2.772-14.028-7.848-19.108z"/></svg><svg viewBox="0 0 492 492" id="svg--prev-arrow" xmlns="http://www.w3.org/2000/svg"><path d="M198.608 246.104L382.664 62.04c5.068-5.056 7.856-11.816 7.856-19.024 0-7.212-2.788-13.968-7.856-19.032l-16.128-16.12C361.476 2.792 354.712 0 347.504 0s-13.964 2.792-19.028 7.864L109.328 227.008c-5.084 5.08-7.868 11.868-7.848 19.084-.02 7.248 2.76 14.028 7.848 19.112l218.944 218.932c5.064 5.072 11.82 7.864 19.032 7.864 7.208 0 13.964-2.792 19.032-7.864l16.124-16.12c10.492-10.492 10.492-27.572 0-38.06L198.608 246.104z"/></svg></svg>